<svg width="250" height="70" viewBox="0 0 250 70" fill="none" xmlns="http://www.w3.org/2000/svg">
<path d="M0 10H40V20H0V10ZM0 20H10V30H0V20ZM30 20H40V30H30V20ZM70 10H110V20H70V10ZM70 20H80V30H70V20ZM140 10H180V20H140V10ZM140 20H150V30H140V20ZM170 20H180V30H170V20ZM210 10H250V20H210V10ZM210 20H220V30H210V20ZM240 20H250V30H240V20Z" fill="#F1ECEC"/>
<path d="M0 30H10V50H0V30ZM0 50H40V60H0V50ZM30 30H40V50H30V30ZM70 30H80V50H70V30ZM70 50H110V60H70V50ZM140 30H180V40H140V30ZM140 50H180V60H140V50ZM170 40H180V50H170V40ZM210 30H220V50H210V30ZM210 50H250V60H210V50ZM240 30H250V50H240V30Z" fill="#B7B1B1"/>
</svg>
